<?xml version="1.0" encoding="UTF-8" standalone="no"?>
<svg
   version="1.1"
   x="0px"
   y="0px"
   viewBox="0 0 100 125"
   style="enable-background:new 0 0 100 100;"
   xml:space="preserve"
   id="svg4"
   sodipodi:docname="noun-piggy-bank-77114.svg"
   inkscape:version="1.4.2 (f4327f4, 2025-05-13)"
   inkscape:export-filename="noun-piggy-bank-77114.png"
   inkscape:export-xdpi="96"
   inkscape:export-ydpi="96"
   xmlns:inkscape="http://www.inkscape.org/namespaces/inkscape"
   xmlns:sodipodi="http://sodipodi.sourceforge.net/DTD/sodipodi-0.dtd"
   xmlns="http://www.w3.org/2000/svg"
   xmlns:svg="http://www.w3.org/2000/svg"><defs
     id="defs4"><rect
       x="15.909091"
       y="85.399449"
       width="75.757575"
       height="20.041323"
       id="rect4" /></defs><sodipodi:namedview
     id="namedview4"
     pagecolor="#ffffff"
     bordercolor="#000000"
     borderopacity="0.25"
     inkscape:showpageshadow="2"
     inkscape:pageopacity="0.0"
     inkscape:pagecheckerboard="0"
     inkscape:deskcolor="#d1d1d1"
     inkscape:zoom="14.52"
     inkscape:cx="49.965565"
     inkscape:cy="62.5"
     inkscape:window-width="3032"
     inkscape:window-height="1830"
     inkscape:window-x="-11"
     inkscape:window-y="0"
     inkscape:window-maximized="0"
     inkscape:current-layer="svg4" /><g
     id="g3"><path
       style=""
       d="M63.757,76.998h-3.679c-2.515,0-4.561-2.045-4.561-4.56v-0.122c-2.83,0.448-5.731,0.512-8.605,0.182   c-0.032,2.487-2.066,4.501-4.561,4.501h-3.679c-2.515,0-4.561-2.045-4.561-4.56v-4.474c-2.518-1.664-4.667-3.723-6.29-6.025H24.17   c-3.186,0-5.778-2.592-5.778-5.779V46.126c0-3.186,2.592-5.779,5.778-5.779h3.652c1.87-2.656,4.422-4.965,7.461-6.752v-7.862H37   c3.232,0,6.18,1.673,7.85,4.36c1.874-0.341,3.784-0.514,5.696-0.514c14.472,0,26.245,9.673,26.245,21.562   c0,6.053-3.076,11.791-8.473,15.87v5.425C68.318,74.952,66.273,76.998,63.757,76.998z M58.953,68.08v4.358   c0,0.62,0.505,1.125,1.125,1.125h3.679c0.621,0,1.125-0.505,1.125-1.125v-7.191l0.731-0.513c4.92-3.451,7.742-8.405,7.742-13.59   c0-9.996-10.232-18.127-22.81-18.127c-2.103,0-4.202,0.234-6.24,0.694l-1.399,0.316l-0.561-1.319   c-0.682-1.603-2.023-2.783-3.629-3.279v6.199l-0.905,0.486c-3.23,1.735-5.867,4.112-7.627,6.874l-0.506,0.795h-5.51   c-1.292,0-2.343,1.051-2.343,2.344V56.16c0,1.292,1.051,2.344,2.343,2.344h5.51l0.506,0.795c1.552,2.436,3.812,4.598,6.536,6.253   l0.825,0.502v6.384c0,0.62,0.505,1.125,1.125,1.125h3.679c0.621,0,1.125-0.505,1.125-1.125v-3.984l2.022,0.364   c3.768,0.678,7.664,0.586,11.353-0.258L58.953,68.08z"
       fill="#231F20"
       id="path1" /><circle
       style=""
       cx="37.334"
       cy="43.339"
       r="2.529"
       fill="#231F20"
       id="circle1" /><path
       style=""
       d="M65.041,43.358c-5.483-5.723-13.998-5.343-14.087-5.335l-0.136-2.573   c0.397-0.018,9.791-0.44,16.083,6.126L65.041,43.358z"
       fill="#231F20"
       id="path2" /><path
       style=""
       d="M81.44,52.185c-0.2,0-0.407-0.015-0.618-0.045c-1.643-0.235-2.89-1.741-2.841-3.429   c0.013-0.465,0.159-1.435,1.018-2.391c-1.869-0.707-3.653-0.239-3.677-0.232l-0.678-2.486c0.162-0.044,3.693-0.971,6.838,1.111   c1-0.384,2.283-0.68,3.928-0.817l0.215,2.567c-0.757,0.063-1.426,0.166-2.008,0.299c0.922,1.296,1.167,2.634,0.645,3.765   C83.779,51.58,82.726,52.185,81.44,52.185z M81.157,47.807c-0.394,0.322-0.59,0.663-0.6,0.98c-0.012,0.425,0.316,0.758,0.63,0.803   c0.413,0.06,0.688-0.03,0.739-0.142C82.016,49.25,81.912,48.633,81.157,47.807z"
       fill="#231F20"
       id="path3" /></g><text
     xml:space="preserve"
     id="text4"
     style="text-align:start;writing-mode:lr-tb;direction:ltr;white-space:pre;shape-inside:url(#rect4);fill:#000000"><tspan
       x="15.908203"
       y="96.37913"
       id="tspan2"><tspan
         style="font-family:'Lucida Sans';-inkscape-font-specification:'Lucida Sans'"
         id="tspan1">miras.global</tspan></tspan></text></svg>
